<?xml version="1.0"?>
<svg xmlns="http://www.w3.org/2000/svg" xmlns:xlink="http://www.w3.org/1999/xlink" version="1.1" id="Capa_1" x="0px" y="0px" viewBox="0 0 422.263 422.263" style="enable-background:new 0 0 422.263 422.263;" xml:space="preserve" width="512px" height="512px"><g><path d="M416.263,307.135h-40v-28.316c0-3.314-2.686-6-6-6h-22v-23.688c0-3.313-2.687-6-6-6h-56c-3.313,0-6,2.687-6,6v58.003  h-50.348c0.547-0.724,1.073-1.465,1.573-2.229c13.406-20.492,20.492-44.312,20.492-68.884c0-26.382-8.047-51.522-23.253-72.895  V96.111c0-47.96-39.019-86.979-86.979-86.979h-31.203c-48.132,0-87.291,39.158-87.291,87.291v66.683  c-1.345,1.893-2.654,3.815-3.898,5.786C6.693,188.963,0,212.176,0,236.022c0,24.573,7.086,48.393,20.492,68.884  c0.502,0.767,1.031,1.512,1.581,2.239c-3.224,0.102-5.809,2.741-5.809,5.99v24c0,3.313,2.687,6,6,6h40v34.309c0,3.314,2.686,6,6,6  h22v23.688c0,3.313,2.687,6,6,6h56c3.313,0,6-2.687,6-6v-63.997h122v63.997c0,3.313,2.687,6,6,6h56c3.313,0,6-2.687,6-6v-23.688h22  c3.314,0,6-2.686,6-6v-34.309h40c3.313,0,6-2.687,6-6v-24C422.263,309.822,419.577,307.135,416.263,307.135z M74.761,120.908  c-3.041-5.949-4.634-12.52-4.634-19.272c0-23.435,19.125-42.5,42.633-42.5h26.464c11.472,0,22.177,4.388,30.145,12.356  c8.053,8.053,12.488,18.712,12.488,30.012c0,6.809-1.604,13.423-4.664,19.394c-16.114-7.205-33.309-10.866-51.204-10.866  C108.083,110.031,90.878,113.697,74.761,120.908z M193.595,96.135h23.131v52.511c-8.477-8.791-18.213-16.351-28.819-22.347  c3.903-7.641,5.95-16.096,5.95-24.796C193.857,99.699,193.769,97.908,193.595,96.135z M110.544,21.132h31.203  c37.267,0,68.26,27.334,74.011,63.003h-24.752c-2.651-7.857-7.096-15.073-13.152-21.129c-10.234-10.234-23.954-15.871-38.63-15.871  H112.76c-23.988,0-44.4,15.51-51.727,37H36.272C42.158,48.446,73.214,21.132,110.544,21.132z M35.253,96.422  c0-0.096,0.007-0.191,0.007-0.287h23.144c-0.183,1.809-0.278,3.644-0.278,5.5c0,8.647,2.038,17.063,5.925,24.683  c-10.649,6.017-20.35,13.522-28.798,22.29V96.422z M28.263,331.135v-12h34v12H28.263z M74.263,371.444v-86.625h16v86.625H74.263z   M102.263,255.132h16v146h-16V255.132z M146.263,401.132h-16v-146h16V401.132z M96.263,243.132c-3.313,0-6,2.687-6,6v23.688h-22  c-3.314,0-6,2.686-6,6v28.316H39.809c-3.674-2.102-6.867-5.116-9.276-8.798C18.409,279.803,12,258.255,12,236.022  c0-43.473,24.164-82.554,63.068-101.997c15.878-7.958,33.011-11.994,50.921-11.994c17.902,0,35.028,4.032,50.911,11.989  c15.965,7.968,30.039,19.782,40.701,34.167c14.64,19.731,22.378,43.188,22.378,67.835c0,22.233-6.409,43.781-18.534,62.315  c-2.414,3.691-5.616,6.709-9.273,8.798h-53.91v-58.003c0-3.313-2.687-6-6-6H96.263z M158.263,331.135v-12h122v12H158.263z   M292.263,255.132h16v146h-16V255.132z M336.263,401.132h-16v-146h16V401.132z M364.263,371.444h-16v-86.625h16V371.444z   M410.263,331.135h-34v-12h34V331.135z" data-original="#000000" class="active-path" data-old_color="#000000" fill="#FFFFFF"/></g> </svg>
