<?xml version="1.0"?>
<svg xmlns="http://www.w3.org/2000/svg" height="512px" viewBox="0 -130 512 512" width="512px" class=""><g><path d="m489.460938 82.214844h-11.914063v-26.40625c0-12.429688-10.109375-22.539063-22.539063-22.539063h-31.914062v185.425781h31.914062c12.429688 0 22.539063-10.109374 22.539063-22.539062v-26.40625h11.914063c12.429687 0 22.539062-10.109375 22.539062-22.539062v-42.457032c0-12.425781-10.109375-22.539062-22.539062-22.539062zm0 0" data-original="#000000" class="active-path" data-old_color="#000000" fill="#FFFFFF"/><path d="m342.46875 0v251.96875s49.789062-.054688 50.625-.148438v-251.675781c-.835938-.0937498-50.625-.144531-50.625-.144531zm0 0" data-original="#000000" class="active-path" data-old_color="#000000" fill="#FFFFFF"/><path d="m199.53125 82.214844h112.9375v87.535156h-112.9375zm0 0" data-original="#000000" class="active-path" data-old_color="#000000" fill="#FFFFFF"/><path d="m118.90625.144531v251.675781c.835938.09375 50.625.144532 50.625.144532v-251.964844s-49.789062.0507812-50.625.144531zm0 0" data-original="#000000" class="active-path" data-old_color="#000000" fill="#FFFFFF"/><path d="m56.992188 33.269531c-12.429688 0-22.539063 10.109375-22.539063 22.539063v26.40625h-11.914063c-12.429687 0-22.539062 10.113281-22.539062 22.539062v42.457032c0 12.429687 10.109375 22.539062 22.539062 22.539062h11.914063v26.40625c0 12.429688 10.109375 22.539062 22.539063 22.539062h31.914062v-185.425781zm0 0" data-original="#000000" class="active-path" data-old_color="#000000" fill="#FFFFFF"/></g> </svg>
